<svg width="120" height="120" viewBox="0 0 120 120" fill="none" xmlns="http://www.w3.org/2000/svg">
<rect width="120" height="120" fill="none"/>
<path d="M6.28687 18.5868L5.78895 17.3187L7.69175 16.1203L6.66595 16.2008L6.2717 15.1987L7.39946 14.3481C7.32169 13.7128 7.38138 13.1017 7.57774 12.5305C7.82428 11.8166 8.27168 11.1703 8.9067 10.6085L7.50001 7.80964L8.6934 6.88727L11.1877 9.25C11.612 9.08615 12.0294 8.97109 12.4292 8.9085C12.7149 8.8629 12.9992 8.84222 13.2755 8.84739L13.8971 6.72224L15.0425 6.9084L15.1903 8.99989L17.0399 7.63774L18.1208 8.70933L16.4543 11.3902L19.8862 10.2239L20.6118 11.5741L17.6691 13.8623L18.6353 14.2439L18.5742 15.4261L17.7078 15.5786L18.8266 16.8811L18.1061 17.9586L16.6849 17.3412L14.8799 18.2848C13.57 18.9695 12.3456 19.2117 11.2408 19.0043L8.60712 21.4957L7.38039 20.4939L8.53384 18.2213L6.28687 18.5868ZM8.63645 20.1735L10.2157 18.6592L10.1982 18.6498L11.0612 17.8092L11.0935 17.8228C11.2021 17.8698 11.3166 17.9099 11.4325 17.9423C12.2855 18.175 13.2902 17.9935 14.4191 17.4034C15.0896 17.0529 15.6225 16.6515 16.0035 16.2098L16.0285 16.1808L17.7025 16.964L17.6944 16.9656L17.8873 17.0513L17.9234 16.9974L16.8212 15.7359L16.797 15.7402L16.5432 15.4566L16.5503 15.3198L16.5536 15.3111C16.5612 15.2925 16.5679 15.2731 16.5753 15.2539C16.5947 15.2005 16.6128 15.1445 16.6295 15.0881L16.6388 15.0565L18.0731 14.8198L18.0758 14.7688L16.733 14.2542L16.7318 14.2153C16.7245 14.0142 16.6962 13.8017 16.6478 13.5852L16.6398 13.5505L16.7213 13.4882L16.7259 13.4902L16.7238 13.4862L19.3625 11.4461L19.3243 11.3731L16.2308 12.4352L16.2041 12.3842C16.1873 12.3497 16.1695 12.3144 16.1512 12.2794L16.0501 12.086C16.0022 11.9945 15.9541 11.907 15.9062 11.8257C15.8777 11.7757 15.8487 11.7272 15.8195 11.6794C15.729 11.5338 15.636 11.3972 15.5423 11.273L15.5181 11.2405L17.0015 8.89211L16.9421 8.83344L14.7395 10.466L14.708 10.4437C14.686 10.4278 14.6637 10.4127 14.6417 10.3981L14.6172 10.3823L14.4254 7.5779L14.384 7.57092L13.9926 8.94422L13.9946 8.94573L13.6956 10.0022L13.6497 9.99365C12.9269 9.85717 12.1022 9.99864 11.1987 10.413L11.1664 10.428L8.74159 8.11101L8.67185 8.16466L9.6368 10.0531L9.65392 10.0422L10.1549 11.0006L10.1163 11.0278C9.4061 11.5226 8.93205 12.095 8.70724 12.7288C8.54727 13.1791 8.51497 13.6785 8.61003 14.2138L8.61576 14.2477L7.54985 15.0283L7.5488 15.0263L6.90395 15.5015L6.91738 15.5353L7.65857 15.4693L8.974 15.3507L8.99093 15.3877C9.03645 15.4874 9.08636 15.5886 9.14307 15.6971L9.24421 15.8906C9.26408 15.9286 9.28341 15.9656 9.3037 16.0021L9.32852 16.0496L8.26154 16.7054L8.25751 16.7011L7.15037 17.3868L9.08426 17.057L9.33208 17.0147L9.46879 16.9916L9.47062 16.9951L9.33009 17.0189L9.08656 17.0603L7.15037 17.3868L6.7587 17.6291L6.78211 17.6888L10.1103 17.1273L8.56819 20.1175L8.63818 20.1745L8.63645 20.1735Z" fill="white" fill-opacity="0.2"/>
<path d="M11.6672 14.9148C11.9272 15.4122 12.5184 15.6169 12.9872 15.3719C13.456 15.1268 13.6258 14.5243 13.3657 14.0269C13.1057 13.5294 12.5143 13.3242 12.045 13.5696C11.5757 13.8149 11.4069 14.4168 11.6672 14.9148Z" fill="white" fill-opacity="0.2"/>
<path d="M13.9118 13.7414C14.1719 14.2389 14.763 14.4436 15.2318 14.1985C15.7006 13.9535 15.8704 13.351 15.6104 12.8536C15.3503 12.3561 14.7589 12.1509 14.2897 12.3962C13.8204 12.6415 13.6515 13.2435 13.9118 13.7414Z" fill="white" fill-opacity="0.2"/>
<path d="M70.452 109.812L70.5431 108.461L68.381 107.897L69.3769 107.665L69.4497 106.598L68.1261 106.13C68.0091 105.505 67.7692 104.944 67.4118 104.462C66.9641 103.86 66.3463 103.382 65.5762 103.04L66.0689 99.9667L64.6616 99.451L63.0077 102.438C62.5566 102.41 62.1267 102.426 61.7292 102.487C61.4449 102.529 61.1693 102.595 60.9091 102.683L59.6826 100.856L58.6534 101.376L59.141 103.402L56.9801 102.666L56.2777 104.006L58.6609 106.045L55.0599 105.97L54.7776 107.467L58.2518 108.752L57.4511 109.403L57.8637 110.505L58.7302 110.389L58.0612 111.959L59.0671 112.763L60.2281 111.752L62.2211 112.104C63.6674 112.36 64.8999 112.222 65.8843 111.694L69.1268 113.264L69.9883 111.947L68.2137 110.14L70.452 109.812ZM68.7023 112.02L66.7519 111.059L66.7656 111.045L65.6959 110.508L65.6693 110.531C65.5806 110.608 65.4841 110.68 65.384 110.745C64.6459 111.222 63.6396 111.351 62.3931 111.131C61.6528 111 61.0276 110.78 60.5341 110.476L60.5017 110.456L59.1509 111.7L59.1591 111.699L59.002 111.838L58.9517 111.798L59.6173 110.272L59.6414 110.269L59.7968 109.924L59.749 109.797L59.7434 109.79C59.7305 109.774 59.7184 109.758 59.7056 109.742C59.6712 109.697 59.6372 109.65 59.6045 109.601L59.5862 109.574L58.1565 109.78L58.1386 109.733L59.2563 108.842L59.2457 108.805C59.1923 108.612 59.1553 108.403 59.1362 108.183L59.1333 108.148L59.0375 108.113L59.0337 108.116L59.0345 108.112L55.9227 106.971L55.937 106.89L59.1861 106.968L59.1961 106.912C59.2017 106.874 59.208 106.836 59.2148 106.797L59.2526 106.583C59.2704 106.482 59.2898 106.385 59.3107 106.294C59.3228 106.238 59.3356 106.183 59.3489 106.129C59.391 105.964 59.4381 105.807 59.4896 105.661L59.5028 105.623L57.3929 103.843L57.4316 103.77L60.0079 104.655L60.0311 104.625C60.0472 104.603 60.0638 104.582 60.0803 104.562L60.0987 104.539L59.4389 101.825L59.476 101.806L60.2589 102.99L60.2574 102.992L60.8577 103.903L60.8986 103.881C61.5424 103.535 62.3661 103.421 63.3463 103.543L63.3814 103.547L64.9832 100.625L65.0653 100.655L64.7179 102.733L64.6984 102.728L64.5114 103.786L64.5561 103.8C65.3774 104.056 65.9982 104.456 66.4013 104.989C66.688 105.367 66.8684 105.831 66.939 106.366L66.9438 106.4L68.1878 106.82L68.1881 106.818L68.9416 107.074L68.939 107.11L68.2171 107.27L66.9354 107.553L66.9304 107.593C66.9172 107.701 66.9003 107.812 66.8792 107.932L66.8414 108.145C66.834 108.187 66.8268 108.228 66.8185 108.269L66.8093 108.321L68.0168 108.622L68.0193 108.617L69.2739 108.934L67.3429 109.202L67.0955 109.236L66.959 109.256L66.9584 109.259L67.0986 109.24L67.3417 109.206L69.2739 108.934L69.7176 109.046L69.7134 109.11L66.3921 109.577L68.7501 111.947L68.701 112.021L68.7023 112.02Z" fill="white" fill-opacity="0.2"/>
<path d="M64.2534 107.948C64.1563 108.497 63.6578 108.868 63.1401 108.777C62.6225 108.685 62.2809 108.166 62.3779 107.616C62.475 107.067 62.9737 106.695 63.4918 106.787C64.01 106.878 64.3506 107.398 64.2534 107.948Z" fill="white" fill-opacity="0.2"/>
<path d="M61.775 107.51C61.6779 108.059 61.1794 108.43 60.6617 108.339C60.1441 108.247 59.8025 107.728 59.8995 107.178C59.9966 106.629 60.4953 106.257 61.0134 106.349C61.5316 106.44 61.8722 106.96 61.775 107.51Z" fill="white" fill-opacity="0.2"/>
<path d="M88.3939 16.0169C88.5793 15.7082 88.7742 15.423 88.9794 15.1632L88.1382 13.7461L92.3513 11.2404L92.9647 12.2739L93.816 10.6779L98.1374 12.9829L97.3093 14.5354C98.0313 15.0025 98.6349 15.5106 99.1175 16.0576C99.1284 16.0703 99.1395 16.0824 99.1498 16.0948L100.574 15.6609L101.998 20.3507L100.673 20.7547L102.072 21.5008L99.7639 25.8279L97.7116 24.7332C97.6463 24.7796 97.5793 24.8235 97.5117 24.8656C96.7564 25.3361 95.906 25.5574 94.9831 25.5217L94.8023 25.5149L94.3902 26.2014L94.2925 26.3845C94.0513 26.121 93.7076 25.8557 93.2527 25.5824L91.0161 24.2408C90.4032 23.8733 89.8675 23.4803 89.4104 23.0634L88.1904 23.7395L85.8195 19.4518L87.483 18.5296C87.5771 17.7118 87.8813 16.8719 88.3939 16.0169ZM91.5597 23.3349C92.9596 24.1751 94.2276 24.5036 95.3295 24.3114C95.9423 24.2054 96.5093 23.9272 97.028 23.4799C97.1294 23.393 97.2283 23.2994 97.3262 23.1992L99.1354 24.1642L100.34 21.9055L98.74 21.052C98.7773 20.9693 98.8121 20.8867 98.8448 20.8053C98.8938 20.6805 98.9379 20.5577 98.9753 20.4359C99.0205 20.2938 99.0572 20.1533 99.0863 20.014L99.2118 19.9753L100.378 19.6203L99.6342 17.1721L98.6847 17.4616C98.6209 17.3517 98.5506 17.2438 98.4737 17.1369C98.3873 17.0149 98.2923 16.8946 98.1891 16.7767C98.1012 16.6747 98.0072 16.574 97.9066 16.4743C97.5855 16.1552 97.2049 15.8488 96.7644 15.5571C96.6629 15.4892 96.5583 15.4227 96.4501 15.3573C96.4248 15.3415 96.399 15.3254 96.3728 15.3099C96.275 15.2509 96.1771 15.1948 96.0803 15.1409C95.9699 15.0797 95.8609 15.0215 95.7524 14.9667L96.4739 13.6141L94.2178 12.4107L93.2227 14.2763L93.2279 14.2852C93.2279 14.2852 93.2213 14.2847 93.218 14.2852C93.1781 14.2854 93.1385 14.2865 93.0991 14.2885C93.0018 14.2917 92.9058 14.2995 92.8109 14.311L92.6583 14.0534L92.3198 13.4829L92.1247 13.1543L92.0273 12.9898L91.467 13.3229L89.8274 14.2978L90.5608 15.534C90.4743 15.6273 90.3885 15.7263 90.3048 15.8303C90.2095 15.9472 90.1171 16.0703 90.0265 16.2013C89.9496 16.3112 89.8733 16.4268 89.8 16.547C89.7811 16.5768 89.7628 16.6068 89.7444 16.6369L89.61 16.8617C89.3731 17.257 89.1863 17.6431 89.0512 18.0184C88.9899 18.1849 88.9396 18.3496 88.8995 18.5121C88.8856 18.5683 88.873 18.6236 88.8615 18.6796C88.8292 18.8362 88.806 18.9901 88.7929 19.1425L87.5566 19.8276L88.7945 22.066L89.5597 21.6414C89.635 21.7398 89.7146 21.8359 89.8009 21.9325L89.8015 21.9328C89.8971 22.0405 89.9997 22.1465 90.1093 22.251C90.2021 22.3395 90.2991 22.4273 90.4013 22.514C90.7369 22.7987 91.1226 23.0726 91.5597 23.3349Z" fill="white" fill-opacity="0.2"/>
<path d="M94.0185 18.4553C94.595 18.8019 94.7816 19.5496 94.4353 20.1271C94.0893 20.7041 93.3419 20.8915 92.7651 20.5455C92.1888 20.1998 92.0025 19.4516 92.3485 18.8746C92.6946 18.2977 93.4422 18.1096 94.0185 18.4553Z" fill="white" fill-opacity="0.2"/>
<path d="M96.7767 20.1106C97.3535 20.4566 97.5398 21.2048 97.1935 21.7824C96.8478 22.3588 96.1001 22.5468 95.5233 22.2008C94.9473 21.8545 94.7607 21.1069 95.1067 20.5299C95.4531 19.9524 96.2004 19.7649 96.7767 20.1106Z" fill="white" fill-opacity="0.2"/>
<path d="M22.2515 91.266C22.1111 90.9344 21.9578 90.6248 21.7909 90.3389L22.8217 89.0532L18.9997 85.9838L18.248 86.9216L17.6279 85.2224L13.0269 86.9016L13.6302 88.5545C12.8501 88.9162 12.1815 89.3351 11.6272 89.8094C11.6147 89.8204 11.602 89.8309 11.5901 89.8417L10.2402 89.2132L8.17541 93.6583L9.43113 94.2434L7.9419 94.7869L9.62329 99.3938L11.8083 98.5963C11.8665 98.6513 11.9268 98.7042 11.9878 98.7553C12.67 99.3266 13.4812 99.6645 14.4001 99.758L14.58 99.7765L14.8923 100.514L14.9634 100.709C15.2391 100.481 15.6164 100.267 16.105 100.06L18.5071 99.0434C19.1652 98.765 19.7505 98.4507 20.2613 98.1016L21.375 98.9414L24.3212 95.0267L22.8028 93.8812C22.8237 93.0583 22.6398 92.1842 22.2515 91.266ZM18.0952 98.0704C16.5917 98.7069 15.2903 98.8553 14.226 98.5112C13.634 98.3207 13.1114 97.966 12.6602 97.4506C12.5719 97.3505 12.487 97.244 12.4041 97.1311L10.4779 97.8341L9.60023 95.4294L11.3038 94.8076C11.2785 94.7204 11.2555 94.6338 11.2345 94.5487C11.2034 94.4183 11.1769 94.2905 11.1569 94.1647C11.132 94.0176 11.1152 93.8734 11.1058 93.7314L10.987 93.6755L9.88216 93.1613L10.9601 90.8408L11.8599 91.2601C11.9384 91.1602 12.023 91.0631 12.1141 90.968C12.2167 90.8593 12.3275 90.7534 12.4462 90.651C12.5474 90.5623 12.6546 90.4757 12.7681 90.3911C13.1306 90.1199 13.5503 89.8696 14.0272 89.6423C14.1372 89.5892 14.25 89.5379 14.3663 89.4883C14.3935 89.4762 14.4214 89.4639 14.4495 89.4522C14.5546 89.4073 14.6593 89.3655 14.7626 89.3256C14.8806 89.2804 14.9966 89.2381 15.1117 89.1989L14.5861 87.7588L16.988 86.8821L17.713 88.8684L17.7066 88.8765C17.7066 88.8765 17.7132 88.8769 17.7164 88.8779C17.7559 88.8836 17.795 88.8903 17.8336 88.8977C17.9296 88.9145 18.0236 88.9356 18.1159 88.9602L18.303 88.7264L18.7178 88.2088L18.9569 87.9107L19.0763 87.7613L19.5846 88.1694L21.072 89.3636L20.1733 90.4853C20.2459 90.5898 20.317 90.6999 20.3854 90.8145C20.4635 90.9436 20.5378 91.0784 20.6092 91.2207C20.67 91.3402 20.7294 91.4654 20.7852 91.5947C20.7998 91.6268 20.8137 91.6591 20.8277 91.6914L20.9294 91.9328C21.1088 92.3573 21.2399 92.7657 21.3213 93.1562C21.3587 93.3296 21.3856 93.4997 21.4025 93.6662C21.4085 93.7238 21.4133 93.7803 21.4168 93.8373C21.4269 93.997 21.4284 94.1526 21.4201 94.3053L22.5487 95.1562L21.0104 97.2L20.312 96.6727C20.2237 96.7597 20.1314 96.8437 20.0326 96.9273L20.0319 96.9275C19.9222 97.0208 19.8058 97.1115 19.6827 97.1996C19.5785 97.2743 19.4701 97.3477 19.3568 97.4193C18.9848 97.6544 18.5646 97.8718 18.0952 98.0704Z" fill="white" fill-opacity="0.2"/>
<path d="M16.3416 92.8956C15.7223 93.1583 15.4332 93.8726 15.6955 94.4929C15.9576 95.1125 16.6715 95.4024 17.291 95.1403C17.9098 94.8785 18.1987 94.1635 17.9366 93.5439C17.6746 92.9243 16.9605 92.6338 16.3416 92.8956Z" fill="white" fill-opacity="0.2"/>
<path d="M13.3794 94.1495C12.7599 94.4116 12.471 95.1265 12.7333 95.7468C12.9952 96.3657 13.7093 96.6563 14.3288 96.3942C14.9474 96.1317 15.2366 95.4174 14.9745 94.7978C14.7122 94.1776 13.9983 93.8877 13.3794 94.1495Z" fill="white" fill-opacity="0.2"/>
<g clip-path="url(#clip0_47_2107)">
<path d="M99.1172 88.0002C99.9099 86.6766 101.321 85.6801 103.311 85.04C104.305 84.7201 105.236 84.5561 106.096 84.5493C106.956 84.5416 107.746 84.6906 108.46 84.9964C109.873 85.6028 110.883 86.8245 111.463 88.6277C111.809 89.7032 111.907 90.7046 111.754 91.6019C111.603 92.4886 111.198 93.2832 110.546 93.9639L110.418 94.0973L110.665 94.8653L110.739 95.0615C110.374 95.0706 109.939 95.1569 109.422 95.3232L106.882 96.1404C104.891 96.7808 103.166 96.8038 101.755 96.2091C100.362 95.6209 99.3705 94.4394 98.8103 92.6978C98.2501 90.9561 98.3334 89.3131 99.1172 88.0002ZM102.589 95.2351C103.63 95.6755 104.964 95.6385 106.556 95.1266C108.147 94.6146 109.255 93.8659 109.854 92.899C110.463 91.917 110.529 90.6681 110.053 89.1859L109.972 88.9349C109.495 87.4521 108.711 86.4752 107.646 86.034C106.597 85.5964 105.258 85.6349 103.667 86.1466C102.076 86.6583 100.97 87.4071 100.381 88.3723C99.7846 89.3509 99.7229 90.5983 100.199 92.0786L100.28 92.3296C100.756 93.8092 101.533 94.7867 102.589 95.2351Z" fill="white" fill-opacity="0.2"/>
<path d="M103.674 91.5743C103.882 92.2197 104.581 92.5724 105.235 92.3619C105.889 92.1514 106.253 91.457 106.045 90.8116C105.837 90.1662 105.138 89.8128 104.483 90.0235C103.828 90.2342 103.466 90.9282 103.674 91.5743Z" fill="white" fill-opacity="0.2"/>
<path d="M106.807 90.5664C107.015 91.2119 107.714 91.5646 108.368 91.3541C109.023 91.1436 109.386 90.4492 109.178 89.8038C108.97 89.1584 108.271 88.805 107.616 89.0157C106.961 89.2264 106.599 89.9204 106.807 90.5664Z" fill="white" fill-opacity="0.2"/>
</g>
<g clip-path="url(#clip1_47_2107)">
<path d="M32.4652 54.8504C31.4549 53.7236 29.9102 53.0271 27.8743 52.7818C26.8571 52.6592 25.9303 52.6748 25.1009 52.8286C24.2708 52.9817 23.5382 53.2725 22.9078 53.7001C21.6604 54.5475 20.915 55.9125 20.6927 57.7572C20.5601 58.8575 20.6527 59.8401 20.967 60.6757C21.2777 61.5015 21.8164 62.1912 22.5712 62.7251L22.7189 62.8297L22.6243 63.6154L22.5903 63.818C22.9428 63.7588 23.3781 63.7608 23.9069 63.8245L26.5059 64.1377C28.5425 64.3831 30.2079 64.0836 31.456 63.2477C32.688 62.4214 33.4221 61.0987 33.6368 59.317C33.8515 57.5353 33.4649 55.9686 32.4652 54.8504ZM30.4712 62.4652C29.551 63.0835 28.2591 63.2967 26.6309 63.1005C25.0027 62.9043 23.7958 62.39 23.0393 61.5704C22.2693 60.7384 21.9724 59.548 22.1552 58.0318L22.1861 57.775C22.3689 56.258 22.9415 55.1711 23.8849 54.5476C24.8138 53.9304 26.1104 53.7178 27.7379 53.9139C29.3654 54.11 30.5703 54.6248 31.3172 55.4445C32.0744 56.2756 32.3665 57.4654 32.184 58.9797L32.153 59.2365C31.9706 60.7502 31.4043 61.8365 30.4712 62.4652Z" fill="white" fill-opacity="0.2"/>
<path d="M28.7433 59.142C28.6638 59.8023 28.0563 60.2724 27.3868 60.1917C26.7174 60.111 26.2383 59.51 26.3179 58.8498C26.3974 58.1895 27.005 57.7187 27.6751 57.7995C28.3452 57.8802 28.823 58.4811 28.7433 59.142Z" fill="white" fill-opacity="0.2"/>
<path d="M25.5381 58.7558C25.4586 59.4161 24.8511 59.8862 24.1816 59.8055C23.5122 59.7248 23.0331 59.1238 23.1127 58.4635C23.1922 57.8033 23.7998 57.3325 24.4699 57.4133C25.14 57.494 25.6178 58.0949 25.5381 58.7558Z" fill="white" fill-opacity="0.2"/>
</g>
<path d="M55.7002 30.6178C55.2676 30.3764 54.7642 30.2863 54.1909 30.3486C53.6907 28.9722 52.8647 27.999 51.7303 27.4483C50.8669 27.0308 49.8626 26.8599 48.7309 26.9378C48.522 26.3659 48.1927 25.9545 47.7442 25.7048C47.2189 25.4112 46.5779 25.366 45.8216 25.5691C45.2121 25.7328 44.7488 26.0061 44.4335 26.3898C44.4103 26.3748 44.386 26.3607 44.3619 26.3473C43.8367 26.0536 43.1956 26.0085 42.4394 26.2116C41.6831 26.4147 41.1803 26.767 40.8728 27.2843C40.5645 27.8011 40.5092 28.4274 40.7066 29.1626C40.8007 29.5129 40.9324 29.8125 41.1026 30.0619C40.8552 30.22 40.6611 30.4184 40.5197 30.6558C40.2559 31.0988 40.2085 31.6353 40.3777 32.2651C40.5468 32.8949 40.8585 33.335 41.3132 33.585C41.5273 33.7023 41.7603 33.7734 42.0124 33.798C42.0454 33.962 42.0846 34.1282 42.1299 34.2969C42.406 35.3247 42.8432 36.1663 43.4282 36.7968C43.664 37.0512 43.9255 37.2714 44.2144 37.4563C44.2014 37.7031 44.2338 37.9689 44.3104 38.254C44.4795 38.8839 44.7912 39.3239 45.2459 39.574C45.7007 39.824 46.2434 39.8644 46.8747 39.6948C47.5059 39.5253 47.9656 39.2158 48.23 38.7725C48.3332 38.5993 48.4032 38.4117 48.4398 38.2097L49.6832 37.8758C50.0709 37.7717 50.4364 37.6536 50.7803 37.5214C51.2917 37.6997 51.8777 37.7005 52.5396 37.5228C53.3679 37.3003 53.9527 36.902 54.2943 36.3284C54.4113 36.1328 54.4949 35.9223 54.5469 35.6983C54.6827 35.6771 54.8222 35.6469 54.9651 35.6086C55.7934 35.3861 56.3782 34.9878 56.7198 34.4142C57.0614 33.8406 57.1228 33.1455 56.9037 32.3297C56.6846 31.5139 56.2834 30.9437 55.7002 30.6178ZM55.628 32.9249C55.7487 33.3743 55.7325 33.7316 55.579 33.9975C55.4253 34.2627 55.1276 34.455 54.687 34.5733C54.643 34.5851 54.6 34.5954 54.5579 34.604C54.4346 34.6311 54.3182 34.6458 54.2102 34.6482C53.9842 34.6544 53.7915 34.6091 53.6321 34.5117C53.4235 34.3843 53.261 34.1687 53.1436 33.8639C53.1146 33.99 53.0785 34.1127 53.0354 34.232C53.0499 34.2759 53.0633 34.3208 53.076 34.3679L53.2025 34.8391C53.2842 35.1435 53.3034 35.4055 53.2592 35.6254C53.2382 35.7307 53.203 35.8259 53.1535 35.9117C52.9999 36.1769 52.7022 36.3692 52.2616 36.4875C51.821 36.6058 51.4689 36.5854 51.2066 36.4259C51.1493 36.3908 51.095 36.3489 51.0449 36.2998C50.667 36.4937 50.2413 36.6625 49.7695 36.8072C49.6572 36.842 49.541 36.8752 49.423 36.9069C49.0545 37.0059 48.7005 37.0803 48.3623 37.1293C47.9787 37.1851 47.6153 37.2089 47.2726 37.2006C47.2784 37.2197 47.2837 37.2395 47.2891 37.2593L47.3866 37.6226C47.4799 37.9698 47.4673 38.2463 47.3486 38.451C47.3359 38.4723 47.3224 38.4932 47.3074 38.5139C47.1809 38.6868 46.9648 38.8139 46.66 38.8958C46.4617 38.949 46.2872 38.966 46.1354 38.9456C46.0979 38.9663 46.0617 38.9867 46.0271 39.0079L46.0074 38.9195C45.9494 38.9019 45.8951 38.8779 45.846 38.8479C45.6434 38.7248 45.4966 38.4937 45.4055 38.1547L45.3079 37.7914C45.2147 37.4442 45.2255 37.1688 45.3402 36.9646C45.3786 36.8964 45.4296 36.8342 45.4933 36.7786C45.2288 36.6415 44.9872 36.4672 44.7674 36.257C44.2185 35.7305 43.811 34.9792 43.5513 34.0122L43.4868 33.7723C43.4652 33.6917 43.445 33.6114 43.4272 33.5324C43.3535 33.2172 43.3065 32.9148 43.2855 32.6253C43.1557 32.7479 42.9696 32.8418 42.7273 32.9068C42.3869 32.9983 42.1152 32.9822 41.9133 32.8589C41.9051 32.8538 41.8969 32.8487 41.8893 32.8435C41.6988 32.7171 41.5602 32.4912 41.4728 32.1657L41.3752 31.8024C41.282 31.4553 41.2928 31.1799 41.4075 30.9756C41.4764 30.8528 41.5869 30.75 41.7385 30.6681C41.8382 30.6141 41.9552 30.5687 42.0897 30.5325C42.1726 30.5103 42.2517 30.4943 42.3264 30.4849C42.4176 30.2923 42.524 30.1055 42.6443 29.925C42.5924 29.907 42.5443 29.8834 42.4986 29.8558C42.4146 29.8052 42.3384 29.738 42.2715 29.6542C42.1486 29.5045 42.0531 29.3015 41.9846 29.0467L41.8708 28.6227C41.7619 28.2173 41.7746 27.8955 41.9082 27.6576C42.0413 27.4198 42.3067 27.2475 42.7046 27.1406C43.1025 27.0338 43.4205 27.0494 43.6604 27.187C43.7851 27.2592 43.8927 27.3672 43.9816 27.5121C44.0637 27.6449 44.1307 27.8077 44.1828 28.0018L44.2775 28.3545C44.299 28.3401 44.3206 28.3263 44.3428 28.3124C44.6142 28.1418 44.9068 27.9841 45.2197 27.8409C45.1724 27.6137 45.1671 27.4158 45.2038 27.247C45.2221 27.1624 45.2511 27.0848 45.2905 27.0151C45.4235 26.7773 45.689 26.605 46.0869 26.4981C46.4848 26.3913 46.8027 26.4069 47.0427 26.5445C47.2296 26.6525 47.3768 26.8416 47.4838 27.1126C47.5143 27.1881 47.5413 27.2706 47.5651 27.3593L47.6789 27.7833C47.7169 27.9246 47.7399 28.0561 47.7477 28.1769C48.1695 28.0929 48.5688 28.0448 48.9444 28.033C49.6934 28.0093 50.3498 28.1294 50.9059 28.3928C51.7754 28.8047 52.4169 29.5974 52.8167 30.7528C52.8692 30.9049 52.9179 31.0633 52.962 31.2276L53.0264 31.4675C53.0641 31.6076 53.0969 31.745 53.1242 31.8799C53.29 31.7131 53.5361 31.5858 53.8613 31.4985C54.0991 31.4346 54.3113 31.4102 54.498 31.4259C54.6585 31.4379 54.7996 31.4798 54.9217 31.55C55.1878 31.7032 55.3808 32.0043 55.5015 32.4538L55.628 32.9249Z" fill="white" fill-opacity="0.2"/>
<path d="M46.8713 33.433C47.0369 34.0498 46.6567 34.6883 46.0223 34.8587C45.3878 35.0291 44.7383 34.6672 44.5726 34.0503C44.407 33.4335 44.787 32.7944 45.4221 32.6239C46.0572 32.4533 46.7055 32.8156 46.8713 33.433Z" fill="white" fill-opacity="0.2"/>
<path d="M49.9089 32.6171C49.939 32.7293 49.9509 32.8424 49.9464 32.9526C49.9301 33.401 49.6454 33.8124 49.2103 33.9917C49.1624 34.0119 49.1115 34.0289 49.0599 34.0428C48.4248 34.2133 47.7759 33.8512 47.6102 33.2344C47.4446 32.6176 47.8246 31.9785 48.4597 31.8079C49.0948 31.6374 49.7431 31.9996 49.9089 32.6171Z" fill="white" fill-opacity="0.2"/>
<path d="M76.5764 57.1848C77.0496 57.038 77.5608 57.0538 78.1088 57.2331C78.8826 55.9898 79.8918 55.2083 81.1155 54.9038C82.0465 54.6737 83.0645 54.7139 84.1556 55.024C84.4783 54.5076 84.8854 54.1731 85.3759 54.0214C85.9504 53.8426 86.587 53.9309 87.285 54.2858C87.8476 54.5719 88.2444 54.935 88.4736 55.3757C88.4994 55.3657 88.526 55.357 88.5524 55.3488C89.127 55.17 89.7636 55.2583 90.4615 55.6132C91.1595 55.9682 91.5787 56.4168 91.7727 56.9864C91.9675 57.5558 91.8923 58.18 91.5472 58.8586C91.3828 59.1819 91.192 59.4478 90.974 59.6566C91.1833 59.8625 91.3324 60.0967 91.4216 60.3581C91.5882 60.8461 91.5237 61.3808 91.2281 61.9621C90.9325 62.5434 90.5366 62.9095 90.04 63.0603C89.8064 63.1308 89.5637 63.1522 89.312 63.1242C89.2457 63.2778 89.173 63.4324 89.0939 63.588C88.6115 64.5366 88.0098 65.2698 87.3072 65.7658C87.0239 65.966 86.7225 66.1274 86.4016 66.2487C86.3634 66.4928 86.2768 66.7461 86.1429 67.0093C85.8473 67.5906 85.4515 67.9568 84.9549 68.1075C84.4583 68.2582 83.9189 68.1856 83.3363 67.8893C82.7537 67.593 82.3679 67.1952 82.2007 66.7069C82.1356 66.516 82.1059 66.318 82.1117 66.1129L80.9641 65.5293C80.6063 65.3473 80.2731 65.1563 79.964 64.9558C79.4268 65.0247 78.8532 64.9044 78.2423 64.5937C77.4779 64.205 76.9879 63.6944 76.7722 63.0626C76.6982 62.8471 76.6599 62.6238 76.6553 62.3939C76.5268 62.3451 76.3965 62.2868 76.2646 62.2197C75.5002 61.831 75.0103 61.3204 74.7945 60.6886C74.5788 60.0568 74.6623 59.364 75.0452 58.6111C75.4281 57.8581 75.9385 57.3832 76.5764 57.1848ZM76.1705 59.457C75.9595 59.8718 75.9015 60.2247 75.9968 60.5165C76.0924 60.8078 76.3439 61.0574 76.7506 61.2642C76.7912 61.2849 76.8312 61.3038 76.8706 61.321C76.9856 61.373 77.0965 61.4113 77.2017 61.436C77.4215 61.4888 77.6193 61.4843 77.7955 61.4219C78.0259 61.3403 78.2294 61.1629 78.4072 60.889C78.4096 61.0184 78.4195 61.1459 78.4371 61.2715C78.4138 61.3115 78.3914 61.3526 78.3693 61.3961L78.1482 61.831C78.0053 62.1119 77.9325 62.3643 77.9303 62.5886C77.929 62.696 77.9438 62.7964 77.9745 62.8905C78.0701 63.1818 78.3216 63.4314 78.7283 63.6382C79.1349 63.845 79.4836 63.8978 79.7732 63.7959C79.8365 63.7734 79.8983 63.7436 79.9574 63.706C80.2872 63.9737 80.6688 64.2269 81.1005 64.4659C81.2032 64.5231 81.3101 64.5796 81.4189 64.635C81.7591 64.808 82.09 64.9539 82.4108 65.0717C82.7746 65.2056 83.1252 65.304 83.4623 65.3666C83.4526 65.3841 83.4433 65.4024 83.434 65.4207L83.2635 65.756C83.1006 66.0764 83.0557 66.3495 83.1295 66.5743C83.1376 66.5978 83.1465 66.6211 83.1569 66.6444C83.245 66.8397 83.4301 67.0087 83.7114 67.1518C83.8944 67.2449 84.0617 67.2975 84.2144 67.3089C84.2468 67.3369 84.2781 67.3643 84.3075 67.3923L84.345 67.3098C84.4055 67.3046 84.4636 67.2923 84.5178 67.2731C84.7414 67.1946 84.9328 66.9988 85.092 66.6858L85.2625 66.3506C85.4254 66.0302 85.4717 65.7585 85.4017 65.5349C85.3782 65.4603 85.3412 65.3889 85.2904 65.3213C85.5774 65.2419 85.8499 65.1212 86.1084 64.961C86.7542 64.5592 87.3081 63.9084 87.762 63.0158L87.8746 62.7944C87.9125 62.72 87.9488 62.6456 87.9825 62.572C88.1198 62.2789 88.2283 61.9927 88.3086 61.7138C88.4103 61.8606 88.5729 61.9908 88.7965 62.1045C89.1108 62.2644 89.3799 62.3047 89.6029 62.2259C89.612 62.2226 89.6211 62.2193 89.6296 62.2157C89.8421 62.1314 90.0244 61.939 90.1771 61.6386L90.3476 61.3033C90.5106 60.9829 90.5569 60.7112 90.4869 60.4877C90.4449 60.3533 90.358 60.2299 90.2266 60.1184C90.1402 60.0449 90.0351 59.9764 89.9109 59.9132C89.8344 59.8743 89.7603 59.8424 89.6892 59.8177C89.6398 59.6104 89.5743 59.4057 89.4938 59.2042C89.5484 59.1974 89.6003 59.1842 89.6507 59.1666C89.7433 59.1345 89.8317 59.0844 89.9145 59.0163C90.0657 58.8952 90.2011 58.7163 90.3207 58.4812L90.5197 58.0898C90.71 57.7156 90.7641 57.3982 90.6825 57.1377C90.6014 56.8776 90.3773 56.6542 90.0101 56.4674C89.6429 56.2807 89.3285 56.2303 89.0653 56.3153C88.9284 56.3602 88.8008 56.4436 88.6839 56.5671C88.5761 56.6801 88.4769 56.8255 88.3859 57.0046L88.2203 57.3302C88.2023 57.3117 88.184 57.2937 88.1652 57.2755C87.9349 57.0525 87.6811 56.8378 87.4045 56.633C87.4978 56.4205 87.5439 56.2279 87.5428 56.0552C87.5424 55.9686 87.53 55.8867 87.5059 55.8103C87.4249 55.5502 87.2007 55.3268 86.8335 55.14C86.4663 54.9533 86.1519 54.9029 85.8887 54.9879C85.6835 55.0549 85.5004 55.2096 85.3398 55.4526C85.2943 55.5202 85.2509 55.5954 85.2093 55.6772L85.0103 56.0686C84.9439 56.199 84.8943 56.3228 84.8617 56.4395C84.4663 56.2701 84.0856 56.1406 83.7206 56.0514C82.9926 55.8735 82.3255 55.8554 81.727 55.9982C80.7912 56.2216 79.9998 56.8647 79.3698 57.9126C79.2871 58.0505 79.2067 58.1954 79.1296 58.3471L79.017 58.5685C78.9512 58.6978 78.8908 58.8255 78.8361 58.9518C78.7084 58.7543 78.4939 58.579 78.1938 58.4264C77.9743 58.3147 77.7717 58.247 77.5858 58.2237C77.4262 58.2024 77.2795 58.2142 77.1456 58.2577C76.8536 58.3526 76.6026 58.6073 76.3916 59.0221L76.1705 59.457Z" fill="white" fill-opacity="0.2"/>
<path d="M84.6333 61.7632C84.3438 62.3325 84.5839 63.0358 85.1694 63.3335C85.755 63.6313 86.4653 63.4114 86.7548 62.8421C87.0443 62.2728 86.8045 61.569 86.2184 61.2709C85.6322 60.9729 84.9231 61.1934 84.6333 61.7632Z" fill="white" fill-opacity="0.2"/>
<path d="M81.8298 60.3374C81.7771 60.441 81.7421 60.5492 81.7238 60.658C81.6472 61.1001 81.8407 61.5614 82.2294 61.8268C82.2721 61.8564 82.3183 61.8835 82.366 61.9078C82.9521 62.2058 83.6618 61.9856 83.9513 61.4164C84.2408 60.8471 84.001 60.1432 83.4149 59.8452C82.8288 59.5471 82.1196 59.7676 81.8298 60.3374Z" fill="white" fill-opacity="0.2"/>
<defs>
<clipPath id="clip0_47_2107">
<rect width="13.2914" height="11.8146" fill="white" transform="matrix(-0.951962 0.306216 0.306216 0.951962 109.653 83)"/>
</clipPath>
<clipPath id="clip1_47_2107">
<rect width="13.0377" height="11.5891" fill="white" transform="translate(21.3865 52) rotate(6.87109)"/>
</clipPath>
</defs>
</svg>
