<svg xmlns="http://www.w3.org/2000/svg" viewBox="0 0 192 192">
  <!-- Round launcher icon with white circular background -->
  <circle cx="96" cy="96" r="96" fill="#FFFFFF"/>
  
  <!-- Ghost centered: original 192.39x173.39, scale 0.65, centered -->
  <g transform="translate(33.5, 39.5) scale(0.65)">
    <!-- Outer ghost body -->
    <path d="M167.34,22.51C150.55,7.58,126.69,0,96.43,0c-15.12,0-28.67,1.89-40.55,5.66-11.89,3.76-22.11,9.39-30.59,16.87C8.51,37.35,0,58.96,0,86.76c0,16.58,3.09,31.01,9.17,42.86,6.01,11.71,15.12,20.99,27.12,27.57l2.35,1.29v11.84l-.14,3.07c5.06-1.51,11.44-2.26,19.3-2.26h38.63c30.27,0,54.14-7.43,70.95-22.08,16.59-14.48,25.01-35.44,25.01-62.29s-8.43-49.43-25.05-64.25ZM151.57,139.19c-12.39,10.83-30.94,16.31-55.14,16.31s-42.79-5.48-55.32-16.3c-12.75-10.98-19.2-28.13-19.2-50.98v-3.87c0-22.86,6.47-40.03,19.19-50.98,12.52-10.83,31.14-16.31,55.33-16.31s42.75,5.49,55.14,16.33c12.56,10.99,18.94,28.14,18.94,50.96v3.87c0,22.81-6.38,39.96-18.94,50.97Z" fill="#111827" opacity="0.9"/>
    <!-- Inner white face -->
    <path d="M151.57,33.39c-12.39-10.84-30.94-16.33-55.14-16.33s-42.81,5.48-55.33,16.31c-12.72,10.95-19.19,28.12-19.19,50.98v3.87c0,22.85,6.45,40,19.2,50.98,12.53,10.82,31.14,16.3,55.32,16.3s42.75-5.48,55.14-16.31c12.56-11.01,18.94-28.16,18.94-50.97v-3.87c0-22.82-6.38-39.97-18.94-50.96ZM54.73,110.94c-9.96,0-18.03-8.07-18.03-18.02s8.07-18.03,18.03-18.03,18.02,8.07,18.02,18.03-8.07,18.02-18.02,18.02ZM102.37,110.94c-9.96,0-18.03-8.07-18.03-18.02s8.07-18.03,18.03-18.03,18.02,8.07,18.02,18.03-8.07,18.02-18.02,18.02Z" fill="white"/>
    <!-- Left eye -->
    <circle cx="54.73" cy="92.92" r="18.02" fill="#111827"/>
    <!-- Right eye -->
    <circle cx="102.37" cy="92.92" r="18.02" fill="#111827"/>
  </g>
</svg>
