<svg width="242" height="221" viewBox="0 0 242 221" fill="none" xmlns="http://www.w3.org/2000/svg">
<g clip-path="url(#clip0_37_150)">
<path d="M230.61 119.88C225.23 114.5 218.22 111.11 209.59 109.73C207.68 87 199.42 69.02 184.99 56.15C174 46.38 159.98 39.75 143.12 36.35C142.31 26.9 139.11 19.38 133.53 13.81C127 7.27 117.8 4 105.94 4C96.38 4 88.53 6.24 82.41 10.74C82.13 10.42 81.83 10.11 81.53 9.81C75 3.27 65.8 0 53.94 0C42.08 0 33.34 3.27 26.81 9.81C20.27 16.34 17 25.54 17 37.4C17 43.05 17.75 48.09 19.26 52.53C15.02 53.91 11.4 56.11 8.4 59.11C2.8 64.71 0 72.59 0 82.75C0 92.91 2.83 100.79 8.5 106.39C11.17 109.02 14.3 111.03 17.89 112.42C17.73 115.02 17.65 117.68 17.65 120.4C17.65 136.98 20.74 151.41 26.82 163.26C29.27 168.04 32.23 172.41 35.73 176.36C34.57 180.02 34 184.15 34 188.75C34 198.91 36.83 206.79 42.5 212.39C48.17 217.99 55.95 220.79 65.85 220.79C75.75 220.79 83.69 217.99 89.3 212.39C91.49 210.2 93.25 207.66 94.58 204.77H114.08C120.16 204.77 125.97 204.47 131.52 203.87C138.3 208.62 146.87 211 157.25 211C170.24 211 180.36 207.37 187.61 200.12C190.09 197.65 192.14 194.82 193.78 191.66C195.85 191.89 198.01 192 200.25 192C213.24 192 223.36 188.37 230.61 181.12C237.86 173.87 241.49 163.66 241.49 150.5C241.49 137.34 237.86 127.14 230.61 119.88ZM220.49 154.3C220.49 161.55 218.85 166.86 215.56 170.24C212.27 173.61 207.16 175.3 200.25 175.3C199.56 175.3 198.89 175.28 198.24 175.24C196.33 175.15 194.57 174.9 192.98 174.5C189.65 173.68 187.01 172.22 185.06 170.11C182.51 167.35 180.98 163.45 180.46 158.39C179.54 160.17 178.53 161.87 177.43 163.49C177.47 164.21 177.49 164.94 177.49 165.7V173.3C177.49 178.21 176.74 182.23 175.23 185.36C174.51 186.86 173.62 188.15 172.56 189.24C169.27 192.61 164.16 194.3 157.25 194.3C150.34 194.3 145.27 192.57 142.06 189.11C141.36 188.35 140.73 187.5 140.19 186.56C133.9 187.95 127.01 188.77 119.54 189.04C117.76 189.11 115.93 189.14 114.08 189.14C108.3 189.14 102.83 188.83 97.69 188.2C91.86 187.49 86.45 186.38 81.47 184.87C81.48 185.18 81.48 185.5 81.48 185.82V191.68C81.48 197.28 80.21 201.39 77.67 203.99C77.4 204.26 77.12 204.52 76.82 204.77C74.29 206.86 70.63 207.9 65.85 207.9C62.74 207.9 60.12 207.45 57.98 206.53C57.35 206.69 56.74 206.85 56.15 207.03L56.21 205.62C55.43 205.12 54.73 204.54 54.13 203.89C51.65 201.22 50.41 197.15 50.41 191.68V185.82C50.41 180.22 51.65 176.12 54.13 173.51C54.96 172.64 55.95 171.91 57.1 171.33C53.77 168.2 50.92 164.6 48.53 160.55C42.57 150.41 39.56 137.46 39.56 121.86V117.99C39.56 116.69 39.58 115.4 39.63 114.14C39.79 109.1 40.29 104.36 41.12 99.92C38.74 101.24 35.65 101.9 31.85 101.9C26.51 101.9 22.6 100.56 20.13 97.89C20.03 97.78 19.93 97.67 19.84 97.56C17.55 94.89 16.41 90.93 16.41 85.68V79.82C16.41 74.22 17.65 70.12 20.13 67.51C21.62 65.94 23.64 64.84 26.18 64.22C27.85 63.81 29.74 63.6 31.85 63.6C33.15 63.6 34.37 63.68 35.5 63.84C37.59 61.31 39.88 58.93 42.35 56.7C41.66 56.22 41.05 55.67 40.49 55.07C39.46 53.97 38.61 52.65 37.96 51.12C36.75 48.37 36.15 44.93 36.15 40.82V33.98C36.15 27.44 37.6 22.65 40.49 19.61C43.37 16.57 47.93 15.05 54.17 15.05C60.41 15.05 65 16.57 67.97 19.61C69.51 21.2 70.66 23.26 71.39 25.8C72.07 28.13 72.41 30.85 72.41 33.98V39.67C72.78 39.54 73.15 39.42 73.53 39.3C78.17 37.83 83.07 36.64 88.21 35.75C88.41 32.14 89.11 29.14 90.31 26.75C90.91 25.55 91.64 24.5 92.49 23.61C95.37 20.57 99.93 19.05 106.17 19.05C112.41 19.05 117 20.57 119.97 23.61C122.28 25.99 123.69 29.43 124.19 33.94C124.34 35.2 124.41 36.55 124.41 37.98V44.82C124.41 47.1 124.23 49.17 123.87 51.02C130.37 51.46 136.4 52.35 141.94 53.69C152.99 56.36 162.12 60.82 169.22 67.03C180.32 76.74 186.59 91.26 187.9 110.26C188.07 112.76 188.16 115.34 188.16 117.99V121.86C188.16 124.12 188.1 126.32 187.97 128.46C191.05 126.62 195.15 125.7 200.25 125.7C203.98 125.7 207.18 126.19 209.85 127.18C212.15 128.01 214.05 129.21 215.56 130.76C218.85 134.14 220.49 139.45 220.49 146.7V154.3Z" fill="#151518"/>
<path d="M215.56 130.76C214.05 129.21 212.15 128.01 209.85 127.18C207.18 126.19 203.98 125.7 200.25 125.7C195.15 125.7 191.05 126.62 187.97 128.46C188.1 126.32 188.16 124.12 188.16 121.86V117.99C188.16 115.34 188.07 112.76 187.9 110.26C186.59 91.26 180.32 76.74 169.22 67.03C162.12 60.82 152.99 56.36 141.94 53.69C136.4 52.35 130.37 51.4601 123.87 51.0201C124.23 49.1701 124.41 47.1 124.41 44.82V37.98C124.41 36.55 124.34 35.2 124.19 33.94C123.69 29.43 122.28 25.99 119.97 23.61C117 20.57 112.4 19.05 106.17 19.05C99.9399 19.05 95.3699 20.57 92.4899 23.61C91.6399 24.5 90.9099 25.55 90.3099 26.75C89.1099 29.14 88.4099 32.14 88.2099 35.75C83.0699 36.64 78.1699 37.83 73.5299 39.3C73.1499 39.42 72.7799 39.54 72.4099 39.67V33.98C72.4099 30.85 72.0699 28.13 71.3899 25.8C70.6599 23.26 69.5099 21.2 67.9699 19.61C64.9999 16.57 60.3999 15.05 54.1699 15.05C47.9399 15.05 43.3699 16.57 40.4899 19.61C37.5999 22.65 36.1499 27.44 36.1499 33.98V40.82C36.1499 44.93 36.7499 48.37 37.9599 51.12C38.6099 52.65 39.4599 53.97 40.4899 55.07C41.0499 55.67 41.6599 56.2201 42.3499 56.7001C39.8799 58.9301 37.5899 61.31 35.4999 63.84C34.3699 63.68 33.1499 63.6 31.8499 63.6C29.7399 63.6 27.8499 63.8101 26.1799 64.2201C23.6399 64.8401 21.6199 65.9401 20.1299 67.5101C17.6499 70.1201 16.4099 74.22 16.4099 79.82V85.68C16.4099 90.93 17.5499 94.89 19.8399 97.56C19.9299 97.67 20.0299 97.78 20.1299 97.89C22.5999 100.56 26.5099 101.9 31.8499 101.9C35.6499 101.9 38.7399 101.24 41.1199 99.92C40.2899 104.36 39.7899 109.1 39.6299 114.14C39.5799 115.4 39.5599 116.69 39.5599 117.99V121.86C39.5599 137.46 42.5699 150.41 48.5299 160.55C50.9199 164.6 53.7699 168.2 57.0999 171.33C55.9499 171.91 54.9599 172.64 54.1299 173.51C51.6499 176.12 50.4099 180.22 50.4099 185.82V191.68C50.4099 197.15 51.6499 201.22 54.1299 203.89C54.7299 204.54 55.4299 205.12 56.2099 205.62C56.7599 205.96 57.3499 206.27 57.9799 206.53C60.1199 207.45 62.7399 207.9 65.8499 207.9C70.6299 207.9 74.2899 206.86 76.8199 204.77C77.1199 204.52 77.3999 204.26 77.6699 203.99C80.2099 201.39 81.4799 197.28 81.4799 191.68V185.82C81.4799 185.5 81.4799 185.18 81.4699 184.87C86.4499 186.38 91.8599 187.49 97.6899 188.2C102.83 188.83 108.3 189.14 114.08 189.14C115.93 189.14 117.76 189.11 119.54 189.04C127.01 188.77 133.9 187.95 140.19 186.56C140.73 187.5 141.36 188.35 142.06 189.11C145.27 192.57 150.33 194.3 157.25 194.3C164.17 194.3 169.27 192.61 172.56 189.24C173.62 188.15 174.51 186.86 175.23 185.36C176.74 182.23 177.49 178.21 177.49 173.3V165.7C177.49 164.94 177.47 164.21 177.43 163.49C178.53 161.87 179.54 160.17 180.46 158.39C180.98 163.45 182.51 167.35 185.06 170.11C187.01 172.22 189.65 173.68 192.98 174.5C194.57 174.9 196.33 175.15 198.24 175.24C198.89 175.28 199.56 175.3 200.25 175.3C207.16 175.3 212.27 173.61 215.56 170.24C218.85 166.86 220.49 161.55 220.49 154.3V146.7C220.49 139.45 218.85 134.14 215.56 130.76ZM72.3799 144.58C62.4199 144.58 54.3499 136.51 54.3499 126.56C54.3499 116.61 62.4199 108.53 72.3799 108.53C82.3399 108.53 90.3999 116.6 90.3999 126.56C90.3999 136.52 82.3299 144.58 72.3799 144.58ZM137.27 131.76C135.27 138.44 129.49 143.48 122.42 144.42C121.64 144.53 120.83 144.58 120.02 144.58C110.06 144.58 101.99 136.51 101.99 126.56C101.99 116.61 110.06 108.53 120.02 108.53C129.98 108.53 138.04 116.6 138.04 126.56C138.04 128.37 137.77 130.12 137.27 131.76Z" fill="white"/>
<path d="M90.4001 126.56C90.4001 136.51 82.3301 144.58 72.3801 144.58C62.4301 144.58 54.3501 136.51 54.3501 126.56C54.3501 116.61 62.4201 108.53 72.3801 108.53C82.3401 108.53 90.4001 116.6 90.4001 126.56Z" fill="#151518"/>
<path d="M138.04 126.56C138.04 128.37 137.77 130.12 137.27 131.76C135.27 138.44 129.49 143.48 122.42 144.42C121.64 144.53 120.83 144.58 120.02 144.58C110.06 144.58 101.99 136.51 101.99 126.56C101.99 116.61 110.06 108.53 120.02 108.53C129.98 108.53 138.04 116.6 138.04 126.56Z" fill="#151518"/>
</g>
<defs>
<clipPath id="clip0_37_150">
<rect width="241.49" height="220.79" fill="white"/>
</clipPath>
</defs>
</svg>
