<svg width="193" height="174" viewBox="0 0 193 174" fill="none" xmlns="http://www.w3.org/2000/svg">
<g clip-path="url(#clip0_37_157)">
<path d="M167.34 22.51C150.55 7.58 126.69 0 96.43 0C81.31 0 67.76 1.89 55.88 5.66C43.99 9.42 33.77 15.05 25.29 22.53C8.51 37.35 0 58.96 0 86.76C0 103.34 3.09 117.77 9.17 129.62C15.18 141.33 24.29 150.61 36.29 157.19L38.64 158.48V170.32L38.5 173.39C43.56 171.88 49.94 171.13 57.8 171.13H96.43C126.7 171.13 150.57 163.7 167.38 149.05C183.97 134.57 192.39 113.61 192.39 86.76C192.39 59.91 183.96 37.33 167.34 22.51ZM151.57 139.19C139.18 150.02 120.63 155.5 96.43 155.5C72.23 155.5 53.64 150.02 41.11 139.2C28.36 128.22 21.91 111.07 21.91 88.22V84.35C21.91 61.49 28.38 44.32 41.1 33.37C53.62 22.54 72.24 17.06 96.43 17.06C120.62 17.06 139.18 22.55 151.57 33.39C164.13 44.38 170.51 61.53 170.51 84.35V88.22C170.51 111.03 164.13 128.18 151.57 139.19Z" fill="#151518"/>
<path d="M151.57 33.3901C139.18 22.5501 120.63 17.0601 96.4299 17.0601C72.2299 17.0601 53.6199 22.5401 41.0999 33.3701C28.3799 44.3201 21.9099 61.4901 21.9099 84.3501V88.2201C21.9099 111.07 28.3599 128.22 41.1099 139.2C53.6399 150.02 72.2499 155.5 96.4299 155.5C120.61 155.5 139.18 150.02 151.57 139.19C164.13 128.18 170.51 111.03 170.51 88.2201V84.3501C170.51 61.5301 164.13 44.3801 151.57 33.3901ZM54.7299 110.94C44.7699 110.94 36.6999 102.87 36.6999 92.9201C36.6999 82.9701 44.7699 74.8901 54.7299 74.8901C64.6899 74.8901 72.7499 82.9601 72.7499 92.9201C72.7499 102.88 64.6799 110.94 54.7299 110.94ZM102.37 110.94C92.4099 110.94 84.3399 102.87 84.3399 92.9201C84.3399 82.9701 92.4099 74.8901 102.37 74.8901C112.33 74.8901 120.39 82.9601 120.39 92.9201C120.39 102.88 112.32 110.94 102.37 110.94Z" fill="white"/>
<path d="M120.39 92.92C120.39 102.87 112.32 110.94 102.37 110.94C92.4201 110.94 84.3401 102.87 84.3401 92.92C84.3401 82.97 92.4101 74.89 102.37 74.89C112.33 74.89 120.39 82.96 120.39 92.92Z" fill="#151518"/>
<path d="M72.75 92.92C72.75 102.87 64.6799 110.94 54.7299 110.94C44.78 110.94 36.7 102.87 36.7 92.92C36.7 82.97 44.7699 74.89 54.7299 74.89C64.6899 74.89 72.75 82.96 72.75 92.92Z" fill="#151518"/>
</g>
<defs>
<clipPath id="clip0_37_157">
<rect width="192.39" height="173.39" fill="white"/>
</clipPath>
</defs>
</svg>
