<svg width="237" height="210" viewBox="0 0 237 210" fill="none" xmlns="http://www.w3.org/2000/svg">
<g clip-path="url(#clip0_37_164)">
<path d="M192.3 138.94C192.54 138.13 192.76 137.32 192.97 136.49C193.58 134.09 194.07 131.59 194.43 128.99C195.28 123.15 195.53 116.81 195.19 110L195 106.13C194.97 105.61 194.94 105.09 194.9 104.57C194.78 102.49 194.59 100.45 194.35 98.4799C194.08 96.14 193.73 93.8899 193.3 91.6999C192.93 89.7599 192.5 87.8699 192.02 86.0499L210.22 75.0199L195.59 50.8799L190.59 42.6299L188.17 44.0999L183.33 47.0299L174.93 52.1199L171.14 54.4199C169.98 53.6099 168.78 52.8399 167.53 52.1199C167.03 51.8199 166.52 51.5299 166 51.2499C165.96 51.2199 165.92 51.1999 165.87 51.1799L166 51.0999V19.8199H128.13V42.4999C126.33 42.4599 124.5 42.4599 122.63 42.4899C120.99 42.5199 119.32 42.5699 117.63 42.6599C117.18 42.6799 116.73 42.7099 116.29 42.7399C114.42 42.8399 112.59 42.9799 110.79 43.1599C103 43.8999 95.8901 45.2499 89.4701 47.1799C87.4601 47.7799 85.5301 48.4399 83.6701 49.1599C81.5001 49.9799 79.4201 50.8899 77.4401 51.8799C75.6901 52.7399 74.0201 53.6599 72.4201 54.6499L62.0301 44.2599L35.2501 71.0399L48.0101 83.7899L49.3801 85.1699C48.7901 87.1899 48.2901 89.2799 47.8901 91.4499C47.5301 93.2999 47.2501 95.2099 47.0201 97.1799C46.8801 98.4699 46.7601 99.7899 46.6701 101.13H19.8101V139H50.1801C50.7601 140.99 51.4001 142.9 52.1201 144.74C55.7801 154.19 61.2501 161.77 68.5201 167.42C81.5801 177.6 100.44 182.14 124.59 180.92C132.13 180.54 139.08 179.65 145.45 178.27C147.39 177.85 149.27 177.38 151.1 176.87C153.26 176.27 155.34 175.6 157.34 174.86H157.35C159.15 174.2 160.86 173.5 162.53 172.74L169.57 183.61L201.35 163.01L189.97 145.46C190.86 143.38 191.63 141.21 192.3 138.94ZM80.7001 138.52C70.7501 139.02 62.2901 131.36 61.7901 121.43C61.2901 111.48 68.9401 103.01 78.8901 102.51C88.8301 102.01 97.2901 109.66 97.7901 119.61C98.2901 129.55 90.6401 138.01 80.7001 138.52ZM128.28 136.12C118.33 136.62 109.87 128.97 109.37 119.03C108.87 109.08 116.52 100.62 126.47 100.11C136.41 99.6099 144.87 107.27 145.37 117.21C145.87 127.15 138.22 135.62 128.28 136.12Z" fill="white"/>
<path d="M216.97 107.44C216.7 102.12 216.14 97.04 215.27 92.22L236.14 79.58L198.55 17.54L183.33 26.76V0H110.79V26.03C98.1 27.1 86.67 29.53 76.55 33.31C76.32 33.4 76.09 33.48 75.87 33.57L60.28 17.99L8.98 69.29L23.48 83.79H0V156.34H34.45C34.98 157.4 35.55 158.44 36.14 159.46C42.73 170.86 52.3 179.67 64.61 185.63L67.02 186.8L67.62 198.63V201.7C72.61 199.94 78.95 198.87 86.8 198.47L125.38 196.53C135.95 196 145.69 194.6 154.57 192.34L165.8 209.66L226.67 170.2L211.36 146.58C215.83 135.25 217.71 122.17 216.97 107.44ZM124.59 180.92C100.44 182.14 81.58 177.6 68.52 167.42C61.25 161.77 55.78 154.19 52.12 144.74C51.4 142.9 50.76 140.99 50.18 139H19.81V101.13H46.67C46.76 99.79 46.88 98.47 47.02 97.18C47.25 95.21 47.53 93.3 47.89 91.45C48.29 89.28 48.79 87.19 49.38 85.17L48.01 83.79L35.25 71.04L62.03 44.26L72.42 54.65C74.02 53.66 75.69 52.74 77.44 51.88C79.42 50.89 81.5 49.98 83.67 49.16C85.53 48.44 87.46 47.78 89.47 47.18C95.89 45.25 103 43.9 110.79 43.16C112.59 42.98 114.42 42.84 116.29 42.74C116.73 42.71 117.18 42.68 117.63 42.66C119.32 42.57 120.99 42.52 122.63 42.49C124.5 42.46 126.33 42.46 128.13 42.5V19.82H166V51.1L165.87 51.18C165.87 51.18 165.96 51.22 166 51.25C166.52 51.53 167.03 51.82 167.53 52.12C168.78 52.84 169.98 53.61 171.14 54.42L174.93 52.12L183.33 47.03L188.17 44.1L190.59 42.63L195.59 50.88L210.22 75.02L192.02 86.05C192.5 87.87 192.93 89.76 193.3 91.7C193.73 93.89 194.08 96.14 194.35 98.48C194.59 100.45 194.78 102.49 194.9 104.57C194.94 105.09 194.97 105.61 195 106.13L195.19 110C195.53 116.81 195.28 123.15 194.43 128.99C194.07 131.59 193.58 134.09 192.97 136.49C192.76 137.32 192.54 138.13 192.3 138.94C191.63 141.21 190.86 143.38 189.97 145.46L201.35 163.01L169.57 183.61L162.53 172.74C160.86 173.5 159.15 174.2 157.35 174.86H157.34C155.34 175.6 153.26 176.27 151.1 176.87C149.27 177.38 147.39 177.85 145.45 178.27C139.08 179.65 132.13 180.54 124.59 180.92Z" fill="#151518"/>
<path d="M126.47 100.11C116.52 100.62 108.87 109.08 109.37 119.03C109.87 128.97 118.33 136.62 128.28 136.12C138.22 135.62 145.87 127.15 145.37 117.21C144.87 107.27 136.41 99.6101 126.47 100.11Z" fill="#151518"/>
<path d="M78.89 102.51C68.94 103.01 61.29 111.48 61.79 121.43C62.29 131.36 70.75 139.02 80.7 138.52C90.64 138.01 98.29 129.55 97.79 119.61C97.29 109.66 88.83 102.01 78.89 102.51Z" fill="#151518"/>
</g>
<defs>
<clipPath id="clip0_37_164">
<rect width="236.14" height="209.66" fill="white"/>
</clipPath>
</defs>
</svg>
